<?xml version="1.0" encoding="UTF-8" standalone="no"?>
<svg xmlns="http://www.w3.org/2000/svg"
     width="256" height="256" viewBox="0 0 32 32">
  <title>patent-client-agents icon</title>

  <!--
    Square icon for favicons, avatars, and places that can't host the full
    horizontal logo. Same lightbulb as the parent logo, native scale for
    consistent stroke weight.
  -->

  <!-- Square frame with rounded corners. Monoline single-color. -->
  <rect x="1.5" y="1.5" width="29" height="29"
        fill="none" stroke="#008cc8" stroke-width="1.5"
        rx="2" ry="2" />

  <!-- Lightbulb paths, unscaled. Native bounds span roughly x:9-23, y:6-34;
       translating by (0, -4) centers them vertically inside the 32×32 box. -->
  <g transform="translate(0 -4)" fill="none" stroke="#008cc8">
    <path d="m10.301 17.058a6.3752 6.565 0 0 1-0.40556-2.3041 6.3752 6.565 0 0 1 6.3752-6.565 6.3752 6.565 0 0 1 6.3752 6.565 6.3752 6.565 0 0 1-0.4055 2.304"
          stroke-linejoin="round" stroke-width="1.2155" />
    <path d="m11.719 16.054 4.4793 11.064" stroke-linecap="round" stroke-width="1.1878" />
    <path d="m10.482 17.492 4.4793 11.064" stroke-linecap="square" stroke-width="1.1874" />
    <path d="m22.104 17.403-4.4793 11.064" stroke-linecap="square" stroke-width="1.1878" />
    <circle cx="16.312" cy="14.859" r="4.7353"
            stroke-linejoin="round" stroke-width="1.1878" />
    <path d="m18.639 16.322a2.787 2.787 0 0 1-2.3718 1.3235 2.787 2.787 0 0 1-2.787-2.787 2.787 2.787 0 0 1 2.787-2.787 2.787 2.787 0 0 1 2.4362 1.4335"
          stroke-linejoin="round" stroke-width="1.1878" />
    <g stroke-linecap="round">
      <path d="m13.972 28.851h4.6431" stroke-width="1.1878" />
      <path d="m14.265 30.346h4.1454" stroke-width="1.1223" />
      <path d="m14.639 31.797h3.4424" stroke-width="1.1878" />
    </g>
  </g>
</svg>
